# xmcd
#
# Track frame offsets: 
#        150
#        10660
#        22958
#        34512
#        45972
#        55862
#        68113
#        78700
#        91449
#        105308
#        118285
#        129659
#        142936
#        156749
#        169751
#
# Disc length: 2458 seconds
#
# Revision: 5
# Processed by: cddbd v1.5.2PL0 Copyright (c) Steve Scherf et al.
# Submitted via: ExactAudioCopy v0.99pb5
#
DISCID=be09980f
DTITLE=Various Artist - Classic Country - TL 626-33 - Duets - CD 2
DYEAR=2002
DGENRE=Country
TTITLE0=Connie Smith and Nat Stuckey - Young love
TTITLE1=Willie Nelson and Shirley Collie - Willingly
TTITLE2=Jean Shepard and Ray Pillow - I'll take the dog
TTITLE3=Margie Singleton and Faron Young - Keeping up with the Jones
TTITLE4=Jack Greene and Jeannie Seeley - Wish I didn't have to miss you
TTITLE5=Don Gibson and Dottie West - Rings of gold
TTITLE6=Jim Reeves and Deborah Allen - Don't let me cross over
TTITLE7=Mel Tillis and Sherry Bryce - Don't let go
TTITLE8=Jim Ed Brown and Helen Cornelius - I don't want to have to marry
TTITLE8=you
TTITLE9=Hank Williams Jr. and Lois Johnson - So sad (to watch good love 
TTITLE9=go bad)
TTITLE10=Jody Miller And Johnny Paycheck - Let's all go down to the ri
TTITLE10=ver
TTITLE11=Moe Bandy and Judy Bailey - Following the feeling
TTITLE12=Earl Thomas Conley and Gus Hardin - All tangled up in love
TTITLE13=T.G. Sheppard and Karen Brooks - Faking love
TTITLE14=Barbara Mandrell and Lee Greenwood - To me
EXTD=YEAR: 2002
EXTT0=
EXTT1=
EXTT2=
EXTT3=
EXTT4=
EXTT5=
EXTT6=
EXTT7=
EXTT8=
EXTT9=
EXTT10=
EXTT11=
EXTT12=
EXTT13=
EXTT14=
PLAYORDER=
